<?xml version="1.0" standalone="no"?>
<!DOCTYPE svg PUBLIC "-//W3C//DTD SVG 20010904//EN"
 "http://www.w3.org/TR/2001/REC-SVG-20010904/DTD/svg10.dtd">
<svg version="1.0" xmlns="http://www.w3.org/2000/svg"
 width="300.000000pt" height="271.000000pt" viewBox="0 0 300.000000 271.000000"
 preserveAspectRatio="xMidYMid meet">

<g transform="translate(0.000000,271.000000) scale(0.100000,-0.100000)"
fill="#000000" stroke="none">
<path d="M1430 2270 c-263 -33 -511 -168 -662 -359 -91 -115 -128 -181 -170
-303 -103 -300 -65 -609 109 -874 130 -200 317 -337 558 -410 84 -26 103 -28
270 -28 168 0 186 2 270 28 179 54 311 131 430 251 275 280 364 665 237 1033
-85 247 -262 447 -497 562 -164 81 -382 121 -545 100z m-238 -577 c11 -10 92
-161 179 -335 88 -175 162 -318 167 -318 4 0 79 144 167 321 92 185 170 329
184 340 33 26 74 24 110 -7 57 -48 54 -58 -179 -523 -128 -256 -218 -425 -232
-435 -32 -23 -82 -20 -112 6 -22 20 -422 806 -441 866 -9 32 12 80 44 97 32
18 86 12 113 -12z"/>
</g>
</svg>
